<?xml version="1.0" encoding="UTF-8" standalone="no"?>
<svg xmlns:dc="http://purl.org/dc/elements/1.1/" xmlns:cc="http://creativecommons.org/ns#"
  xmlns:rdf="http://www.w3.org/1999/02/22-rdf-syntax-ns#" xmlns:svg="http://www.w3.org/2000/svg"
  xmlns="http://www.w3.org/2000/svg" viewBox="0 0 2730.6667 2730.6667" height="2730.6667" width="2730.6667"
  xml:space="preserve" id="svg2" version="1.1">
  <metadata id="metadata8">
    <rdf:RDF>
      <cc:Work rdf:about="">
        <dc:format>image/svg+xml</dc:format>
        <dc:type rdf:resource="http://purl.org/dc/dcmitype/StillImage" />
      </cc:Work>
    </rdf:RDF>
  </metadata>
  <defs id="defs6">
    <clipPath id="clipPath20" clipPathUnits="userSpaceOnUse">
      <path id="path18" d="M 146.43,143.727 H 1807.54 V 1908.52 H 146.43 Z" />
    </clipPath>
    <clipPath id="clipPath46" clipPathUnits="userSpaceOnUse">
      <path id="path44" d="M 146.428,143.725 H 1807.54 V 1908.52 H 146.428 Z" />
    </clipPath>
  </defs>
  <g transform="matrix(1.3333333,0,0,-1.3333333,0,2730.6667)" id="g10">
    <g transform="matrix(1,0,0,-1,0,2048)" id="g12">
      <g id="g14">
        <g clip-path="url(#clipPath20)" id="g16">
          <g transform="translate(1337.3125,1017.9648)" id="g22">
            <path id="path24" style="fill:#ffffff;fill-opacity:1;fill-rule:nonzero;stroke:none"
              d="m 0,0 c 0,26.3828 -10.6328,52.0625 -29.2813,70.7148 -18.7734,18.7774 -44.2382,29.0625 -70.707,29.3008 -25,0.2227 -50,0.4375 -75.0039,0.6602 -27.1914,0.2422 -54.3867,0.4765 -81.582,0.7187 -27.8164,0.25 -55.6328,0.4883 -83.4531,0.7383 -28.7266,0.2617 -57.4532,0.5039 -86.1797,0.7617 -28.2735,0.2539 -56.5469,0.5118 -84.8203,0.7461 -28.0782,0.2383 -56.1524,0.5039 -84.2266,0.7461 -28.7969,0.25 -57.5859,0.5078 -86.3828,0.7617 -29.1719,0.2579 -58.3438,0.5157 -87.5156,0.7735 -10.3125,0.0898 -20.6289,0.1211 -30.9375,0.2656 -0.543,0.0156 -1.0899,0.0234 -1.6407,0.0234 -0.004,0 -0.004,0 -0.008,0 -0.0117,0 -0.0273,0 -0.039,0 -26.3789,0 -52.0547,-10.6289 -70.711,-29.2812 -18.6562,-18.6524 -29.2969,-44.3281 -29.3008,-70.707 0,-26.3829 10.6329,-52.0625 29.2813,-70.7149 15.5078,-15.5078 35.875,-25.4805 57.1719,-28.3828 0.1172,-0.0078 0.2343,-0.0156 0.3515,-0.0273 0,0 6.7461,-0.4493 6.7461,-0.4493 14.0625,-0.7812 28.1563,-0.6289 42.2422,-0.7539 14.7305,-0.1328 29.4649,-0.2617 44.1953,-0.3906 28.8321,-0.2539 57.668,-0.5078 86.5,-0.7656 28.3789,-0.25 56.7578,-0.5 85.1406,-0.75 28.2305,-0.25 56.461,-0.5039 84.6915,-0.75 28.4843,-0.2461 56.9687,-0.5 85.4531,-0.7539 28.4101,-0.25 56.8203,-0.5 85.2344,-0.75 27.3554,-0.2422 54.707,-0.4883 82.0585,-0.7266 26.7227,-0.2305 53.4454,-0.4687 80.1719,-0.707 9.0938,-0.0821 18.1953,-0.168 27.293,-0.2422 1.75,-0.0156 3.5,-0.0313 5.2461,-0.043 26.3164,-0.164 52.1406,10.711 70.7109,29.2774 C -10.6445,-52.0547 -0.0039,-26.3789 0,0 Z" />
          </g>
          <g transform="translate(1807.2344,1806.0273)" id="g26">
            <path id="path28" style="fill:#ffffff;fill-opacity:1;fill-rule:nonzero;stroke:none"
              d="m 0,0 c 0.0508,26.3789 -10.5391,52.0781 -29.1563,70.7656 -18.125,18.1953 -43.6484,29.4336 -69.4609,29.4336 -0.3984,0 -0.793,-0.004 -1.1914,-0.008 -21.5781,-0.293 -43.1641,-0.3203 -64.7422,-0.4726 -30.5937,-0.2188 -61.1875,-0.4532 -91.7812,-0.6719 -30.4492,-0.2149 -60.8985,-0.4453 -91.3477,-0.6641 -31.2461,-0.2265 -62.4922,-0.457 -93.7422,-0.6836 -31.8047,-0.2344 -63.6133,-0.4336 -95.4179,-0.6953 -31.8633,-0.2656 -63.7305,-0.4687 -95.5938,-0.6992 -32.5625,-0.2344 -65.1211,-0.4844 -97.6836,-0.7109 -31.8789,-0.2227 -63.7578,-0.4571 -95.6328,-0.6993 -18.2969,-0.1367 -36.5977,-0.3984 -54.8945,-0.3984 -26.4024,0 -52.0508,-10.5117 -70.7657,-29.1563 -18.6875,-18.6132 -29.375,-44.2734 -29.4257,-70.6523 -0.0508,-26.3828 10.539,-52.0781 29.1562,-70.7656 18.5899,-18.6641 44.293,-29.4258 70.6524,-29.4258 30.1679,0 60.3398,0.4414 90.5039,0.6601 31.5742,0.2266 63.1445,0.4493 94.7187,0.6915 32.3672,0.246 64.7383,0.4335 97.1055,0.707 31.8086,0.2695 63.6211,0.4531 95.4336,0.6953 31.6758,0.2461 63.3515,0.4531 95.0234,0.6953 31.4375,0.2383 62.8711,0.4453 94.3086,0.6875 29.8906,0.2266 59.7813,0.4453 89.6719,0.6524 30.5156,0.2109 61.0312,0.4492 91.5469,0.6679 10.8398,0.0781 21.6835,0.1641 32.5234,0.2383 26.4687,0.1758 51.9609,10.418 70.7656,29.1523 C -10.7383,-52.0391 -0.0508,-26.3828 0,0 Z" />
          </g>
          <g transform="translate(1770.4375,180.6445)" id="g30">
            <path id="path32" style="fill:#ffffff;fill-opacity:1;fill-rule:nonzero;stroke:none"
              d="m 0,0 c 18.6523,18.6523 29.2891,44.3281 29.2891,70.7109 0,26.3789 -10.6407,52.0586 -29.2891,70.711 -18.7109,18.707 -44.2891,29.1797 -70.7109,29.289 -17.6133,0.0703 -35.2227,0.1485 -52.8321,0.2227 -25.4336,0.1055 -50.8672,0.2148 -76.3007,0.3203 -26.2305,0.1094 -52.461,0.2188 -78.6875,0.332 -29.5469,0.125 -59.0938,0.2461 -88.6446,0.3711 -29.914,0.125 -59.832,0.2539 -89.7461,0.3789 -31.7578,0.1328 -63.5117,0.2657 -95.2656,0.3985 -31.3359,0.1328 -62.668,0.2656 -94.0039,0.3984 -29.9414,0.125 -59.8867,0.25 -89.8281,0.375 -28.5899,0.125 -57.1797,0.2422 -85.7696,0.3633 -7.1445,0.0273 -14.289,0.0586 -21.4336,0.0859 -0.0664,0 -0.1367,0 -0.2031,0.004 -0.4101,0.004 -0.8242,0.004 -1.2383,0.004 -0.1445,0 -0.2929,0 -0.4375,0 -26.1796,0 -51.7812,-10.8007 -70.2734,-29.289 -18.6484,-18.6524 -29.2891,-44.3281 -29.2891,-70.711 0,-26.3789 10.6407,-52.0585 29.2891,-70.707 18.7148,-18.7148 44.2852,-29.1719 70.7109,-29.293 24.4493,-0.1093 48.8985,-0.2031 73.3477,-0.3086 29.1875,-0.121 58.3711,-0.2421 87.5586,-0.3671 30.7148,-0.1289 61.4336,-0.2579 92.1484,-0.3868 31.9492,-0.1328 63.8985,-0.2695 95.8477,-0.4023 30.5039,-0.1289 61.0078,-0.2578 91.5117,-0.3867 30.3281,-0.125 60.6523,-0.2539 90.9805,-0.3828 27.3242,-0.1133 54.6484,-0.2305 81.9726,-0.3438 27.2774,-0.1133 54.5508,-0.2305 81.8282,-0.3437 20.6132,-0.0899 41.2265,-0.1758 61.8359,-0.2618 5.6406,-0.0234 11.2812,-0.0468 16.9219,-0.0703 C -44.375,-29.3984 -18.5977,-18.5977 0,0 Z" />
          </g>
          <g transform="translate(347.0625,243.2969)" id="g34">
            <path id="path36" style="fill:#ffffff;fill-opacity:1;fill-rule:nonzero;stroke:none"
              d="m 0,0 c 0,0.0039 0,0.0039 0,0.0078 0,29.961 -0.0156,59.9219 -0.0234,89.8867 -0.0157,52.1133 -0.0274,104.2188 -0.0391,156.3321 -0.0117,58.6953 -0.0273,117.3945 -0.043,176.0937 -0.0156,61.4609 -0.0312,122.9258 -0.0468,184.3906 C -0.168,668 -0.1797,729.293 -0.1992,790.5859 c -0.0156,61.086 -0.0274,122.1758 -0.043,183.2618 -0.0195,63.1992 -0.0351,126.3945 -0.0469,189.5937 -0.0117,59.9649 -0.0312,119.9297 -0.0468,179.8945 -0.0157,60.7774 -0.0313,121.5547 -0.0469,182.336 0,12.7929 -0.0078,25.5859 -0.0078,38.3789 0,26.4765 -10.0352,52.0273 -28.6367,70.9765 -18.4805,18.8243 -44.0586,29.6954 -70.4415,29.9415 -0.3007,0 -0.6054,0 -0.9023,0 -26.0664,0 -51.4648,-10.375 -70.0742,-28.6446 -18.6953,-18.3554 -29.9375,-44.1523 -29.9375,-70.4375 0,-53.7851 0.0273,-107.5703 0.0391,-161.3515 0.0156,-59.625 0.0312,-119.2539 0.0468,-178.8789 0.0157,-62.4532 0.0313,-124.9024 0.0469,-187.3555 0.0156,-62.332 0.0313,-124.6641 0.0469,-186.9961 0.0156,-60.6758 0.0312,-121.3555 0.0429,-182.0313 0.0157,-60.6367 0.0313,-121.2734 0.0469,-181.9101 0.0156,-60.3516 0.0313,-120.6992 0.0469,-181.0469 0.0117,-54.832 0.0273,-109.6719 0.0391,-164.5039 0.0117,-40.0859 0.0195,-80.1719 0.0312,-120.2539 0,-6.5742 0.004,-13.1484 0.004,-19.7227 0.1719,-13.4804 2.3438,-26.4804 7.5,-38.9961 4.9024,-11.8945 12.125,-22.8007 21.1367,-31.9804 18.4805,-18.8242 44.0586,-29.6953 70.4414,-29.9414 26.3789,-0.2422 52.1524,10.1601 70.9766,28.6406 C -11.2422,-52.082 0,-26.2852 0,0 Z" />
          </g>
        </g>
      </g>
    </g>
    <g transform="matrix(1,0,0,-1,0,2048)" id="g38">
      <g id="g40">
        <g clip-path="url(#clipPath46)" id="g42">
          <g transform="translate(176.6154,1879.6233)" id="g48">
            <path id="path50" style="fill:#000000;fill-opacity:1;fill-rule:nonzero;stroke:none"
              d="m 0,0 c -18.6953,-18.3555 -29.9375,-44.1523 -29.9375,-70.4375 0,-53.7852 0.0273,-107.5703 0.0391,-161.3516 0.0156,-59.625 0.0312,-119.2539 0.0468,-178.8789 0.0157,-62.4531 0.0313,-124.9023 0.0469,-187.3554 0.0156,-62.3321 0.0313,-124.6641 0.0469,-186.9961 0.0156,-60.6758 0.0312,-121.3555 0.043,-182.0313 0.0156,-60.6367 0.0312,-121.2734 0.0468,-181.9101 0.0157,-60.3516 0.0313,-120.6993 0.0469,-181.0469 0.0117,-54.832 0.0273,-109.6719 0.0391,-164.5039 0.0117,-40.086 0.0195,-80.1719 0.0312,-120.2539 0,-6.5742 0.0039,-13.1485 0.0039,-19.7227 0.1719,-13.4805 2.3438,-26.4805 7.5,-38.9961 4.9024,-11.8945 12.125,-22.8008 21.1367,-31.9804 18.4805,-18.8243 44.0586,-29.6954 70.4415,-29.9415 26.3789,-0.2421 52.1523,10.1602 70.9765,28.6407 18.6953,18.3554 29.9375,44.1523 29.9375,70.4375 0,0 0,0 0,0.01 0,0 0,2e-4 0,2e-4 0,29.9629 -0.0156,59.9235 -0.0234,89.8865 -0.0157,52.1133 -0.0274,104.2188 -0.0391,156.332 -0.0117,58.6953 -0.0273,117.3946 -0.043,176.0938 -0.0156,61.4609 -0.0312,122.9258 -0.0468,184.3906 -0.0157,61.2891 -0.0274,122.582 -0.0469,183.875 -0.0156,61.086 -0.0274,122.1758 -0.043,183.2617 -0.0195,63.1993 -0.0351,126.3946 -0.0469,189.5938 -0.0117,59.9648 -0.0312,119.9297 -0.0468,179.8945 -0.0157,60.7774 -0.0313,121.5547 -0.0469,182.3359 0,12.793 -0.008,25.586 -0.008,38.379 0,26.4765 -10.0352,52.0273 -28.6367,70.9765 C 122.9373,17.5256 97.3592,28.3967 70.9764,28.6428 70.6769,28.6455 70.3744,28.647 70.0751,28.647 44.0103,28.6455 18.6105,18.2708 0,0 Z" />
          </g>
          <g transform="translate(535.5732,1124.1768)" id="g52">
            <path id="path54" style="fill:#000000;fill-opacity:1;fill-rule:nonzero;stroke:none"
              d="m 0,0 c -0.0125,0 -0.0247,1e-4 -0.0372,1e-4 -26.3789,0 -52.0547,-10.6289 -70.711,-29.2812 -18.6562,-18.6524 -29.2968,-44.3282 -29.3008,-70.7071 0,-26.3828 10.6329,-52.0625 29.2813,-70.7148 15.5058,-15.5091 35.875,-25.4817 57.1719,-28.3828 0.1162,-0.009 0.2339,-0.0184 0.3501,-0.0276 0,0 6.7477,-0.4506 6.7477,-0.4506 14.061,-0.7793 28.1565,-0.6286 42.242,-0.7523 14.7305,-0.1328 29.4649,-0.2617 44.1953,-0.3906 28.8321,-0.2539 57.668,-0.5078 86.5,-0.7656 28.3789,-0.25 56.7578,-0.5 85.1407,-0.75 28.2304,-0.25 56.4609,-0.5039 84.6914,-0.75 28.4843,-0.2461 56.9687,-0.5 85.4531,-0.7539 28.4101,-0.25 56.8203,-0.5 85.2344,-0.75 27.3554,-0.2422 54.707,-0.4883 82.0586,-0.7266 26.7226,-0.2305 53.4453,-0.4688 80.1718,-0.707 9.0945,-0.0819 18.1927,-0.1692 27.2903,-0.2436 1.7499,-0.0171 3.4999,-0.0329 5.2488,-0.0416 26.3164,-0.1641 52.1406,10.7109 70.7109,29.2774 18.6563,18.6523 29.2969,44.3281 29.3008,70.707 0,26.3828 -10.6328,52.0625 -29.2812,70.7148 -18.7735,18.7774 -44.2383,29.0625 -70.7071,29.3008 -25,0.2227 -50,0.4375 -75.0039,0.6602 -27.1914,0.2422 -54.3867,0.4765 -81.582,0.7187 -27.8164,0.25 -55.6328,0.4883 -83.4531,0.7383 -28.7266,0.2617 -57.4532,0.5039 -86.1797,0.7617 -28.2735,0.2539 -56.5469,0.5117 -84.8203,0.7461 -28.0782,0.2383 -56.1524,0.5039 -84.2266,0.7461 -28.7969,0.25 -57.5859,0.5078 -86.3828,0.7617 C 90.9315,-0.8046 61.7596,-0.5468 32.5878,-0.2889 22.2755,-0.2 11.9598,-0.1671 1.6505,-0.0237 1.1053,-0.0087 0.559,-5e-4 0.0103,0 0.0062,0 0.0019,0 -0.0021,1e-4 -0.0015,1e-4 -6e-4,0 0,0 Z" />
          </g>
          <g transform="translate(855.0625,325.3186)" id="g56">
            <path id="path58" style="fill:#000000;fill-opacity:1;fill-rule:nonzero;stroke:none"
              d="m 0,0 c -18.6484,-18.6523 -29.2891,-44.3281 -29.2891,-70.7109 0,-26.3789 10.6407,-52.0586 29.2891,-70.7071 18.7148,-18.7148 44.2852,-29.1718 70.7109,-29.2929 24.4493,-0.1094 48.8985,-0.2032 73.3477,-0.3086 29.1875,-0.1211 58.3711,-0.2422 87.5586,-0.3672 30.7148,-0.1289 61.4336,-0.2578 92.1484,-0.3867 31.9492,-0.1328 63.8985,-0.2696 95.8477,-0.4024 30.5039,-0.1289 61.0078,-0.2578 91.5117,-0.3867 30.3281,-0.125 60.6523,-0.2539 90.9805,-0.3828 27.3242,-0.1133 54.6484,-0.2305 81.9726,-0.3438 27.2774,-0.1132 54.5508,-0.2304 81.8281,-0.3437 20.6133,-0.0899 41.2266,-0.1758 61.836,-0.2617 5.6406,-0.0235 11.2812,-0.0469 16.9219,-0.0703 26.3359,-0.1094 52.1132,10.6914 70.7109,29.289 18.6523,18.6524 29.2891,44.3281 29.2891,70.711 0,26.3789 -10.6407,52.0585 -29.2891,70.7109 -18.7109,18.707 -44.2891,29.1797 -70.7109,29.2891 -17.6133,0.0703 -35.2227,0.1484 -52.8321,0.2226 -25.4336,0.1055 -50.8672,0.2149 -76.3008,0.3203 -26.2304,0.1094 -52.4609,0.2188 -78.6875,0.3321 -29.5468,0.125 -59.0937,0.2461 -88.6445,0.3711 -29.914,0.125 -59.832,0.2539 -89.7461,0.3789 -31.7578,0.1328 -63.5117,0.2656 -95.2656,0.3984 -31.3359,0.1328 -62.668,0.2656 -94.0039,0.3984 -29.9414,0.125 -59.8867,0.25 -89.8281,0.375 -28.5899,0.125 -57.1797,0.2422 -85.7696,0.3633 -7.1442,0.0293 -14.2883,0.0586 -21.4326,0.0878 -0.0677,7e-4 -0.1363,0.0016 -0.2041,0.0021 -0.4101,0.0039 -0.8242,0.0039 -1.2383,0.0039 -0.1446,6e-4 -0.2929,9e-4 -0.4376,10e-4 C 44.0922,29.2911 18.4916,18.4916 0,0 Z" />
          </g>
          <g transform="translate(1707.4265,1906.2175)" id="g60">
            <path id="path62" style="fill:#000000;fill-opacity:1;fill-rule:nonzero;stroke:none"
              d="m 0,0 c -21.5781,-0.293 -43.1641,-0.3203 -64.7422,-0.4727 -30.5937,-0.2187 -61.1875,-0.4531 -91.7812,-0.6718 -30.4493,-0.2149 -60.8985,-0.4453 -91.3477,-0.6641 -31.2461,-0.2266 -62.4922,-0.457 -93.7422,-0.6836 -31.8047,-0.2344 -63.6133,-0.4336 -95.4179,-0.6953 -31.8633,-0.2656 -63.7305,-0.4687 -95.5938,-0.6992 -32.5625,-0.2344 -65.1211,-0.4844 -97.6836,-0.711 -31.8789,-0.2226 -63.7578,-0.457 -95.6328,-0.6992 -18.2969,-0.1367 -36.5977,-0.3984 -54.8945,-0.3984 -26.4024,0 -52.0508,-10.5117 -70.7657,-29.1563 -18.6875,-18.6132 -29.375,-44.2734 -29.4257,-70.6523 -0.0508,-26.3828 10.539,-52.0781 29.1562,-70.7656 18.5899,-18.6641 44.293,-29.4258 70.6524,-29.4258 30.1679,0 60.3398,0.4414 90.5039,0.6601 31.5742,0.2266 63.1445,0.4493 94.7187,0.6915 32.3672,0.246 64.7383,0.4335 97.1055,0.707 31.8086,0.2695 63.6211,0.4531 95.4336,0.6953 31.6758,0.2461 63.3515,0.4531 95.0234,0.6953 31.4375,0.2383 62.8711,0.4453 94.3086,0.6875 29.8906,0.2266 59.7813,0.4453 89.6719,0.6524 30.5156,0.2109 61.0312,0.4492 91.5468,0.6679 10.8399,0.0781 21.6836,0.1641 32.5235,0.2383 26.4687,0.1758 51.9609,10.418 70.7656,29.1523 18.6875,18.6172 29.375,44.2735 29.4258,70.6563 0.0508,26.3789 -10.5391,52.0781 -29.1563,70.7656 C 52.5247,-11.2289 27.0044,0.0078 1.1899,0.0079 0.7931,0.0079 0.3969,0.0054 0,0 Z" />
          </g>
        </g>
      </g>
    </g>
  </g>
</svg>